<svg fill="none" class="icon icon-cart" version="1.1" viewBox="0 0 1200 1200" xmlns="http://www.w3.org/2000/svg">
 <path fill="currentColor" d="m1103.3 270.74c-21.375-28.875-54.375-45.75-90.375-45.75h-709.5l-3.375-37.5c0-61.875-50.625-112.5-112.5-112.5h-75c-20.625 0-37.5 16.875-37.5 37.5s16.875 37.5 37.5 37.5h75c20.625 0 37.5 16.875 37.5 40.875l12.75 135 39.375 424.13 5.25 54.75c9 97.125 89.25 170.26 186.74 170.26h468.37c20.625 0 37.5-16.875 37.5-37.5s-16.875-37.5-37.5-37.5h-468.37c-58.5 0-106.5-43.875-112.12-102l-1.125-13.875h553.5c49.5 0 92.625-31.875 107.62-79.125l103.5-334.13c10.875-34.5 4.5-70.875-16.875-100.12zm-54.375 78-103.5 334.13c-4.875 15.75-19.125 26.25-36 26.25h-560.63l-0.75-6.375-37.5-402.74h702.37c12 0 22.875 5.625 30 15.375s9.375 21.75 5.625 33.375zm-552 738.74c0 25.875-21 46.875-46.875 46.875s-46.875-21-46.875-46.875 21-46.875 46.875-46.875 46.875 21 46.875 46.875zm314.63 0c0 25.875-21 46.875-46.875 46.875s-46.875-21-46.875-46.875 21-46.875 46.875-46.875 46.875 21 46.875 46.875z"/>
</svg>