<svg fill="none" class="icon icon-search" version="1.1" id="Layer_1" xmlns="http://www.w3.org/2000/svg" xmlns:xlink="http://www.w3.org/1999/xlink" x="0px" y="0px"
	  viewBox="0 0 1200 1200" enable-background="new 0 0 1200 1200" xml:space="preserve">
<path fill="currentColor" d="M496.724,966.104c-259.297,0-470.237-210.95-470.237-470.237c0-259.297,210.94-470.248,470.237-470.248
	s470.237,210.95,470.237,470.237c0,125.596-48.914,243.701-137.732,332.516c-88.814,88.818-206.93,137.732-332.516,137.732H496.724z
	 M496.724,86.08c-225.945,0-409.776,183.843-409.776,409.776c0,225.966,183.843,409.776,409.776,409.776
	c109.452,0,212.358-42.624,289.748-120.018C863.861,708.204,906.49,605.32,906.49,495.846
	c0-225.934-183.821-409.776-409.766-409.776V86.08z"/>
<path fill="currentColor" d="M829.187,785.68l344.146,346.091l-42.873,42.629L786.314,828.309L829.187,785.68z"/>
</svg>