<svg version="1.1" id="Layer_1" xmlns="http://www.w3.org/2000/svg" xmlns:xlink="http://www.w3.org/1999/xlink" x="0px" y="0px"
	 fill="none" class="icon icon-account" viewBox="0 0 1200 1200" enable-background="new 0 0 1200 1200" xml:space="preserve">
<path fill="currentColor" d="M1051.51,835.016c-56.382-81.333-132.491-145.331-221.319-186.593c77.695-65.589,127.144-163.689,127.144-273.105
	c0-197.057-160.281-357.338-357.338-357.338S242.658,178.261,242.658,375.318c0,109.409,49.447,207.509,127.144,273.105
	c-88.891,41.206-164.998,105.26-221.38,186.593c-63.885,92.131-97.644,199.894-97.644,311.748c0,19.438,15.743,35.182,35.182,35.182
	s35.182-15.743,35.182-35.182c0-194.219,121.796-373.137,303.163-445.208c4.888-1.932,9.037-4.888,12.448-8.412
	c48.936,25.235,104.465,39.501,163.24,39.501c58.774,0,114.241-14.266,163.24-39.501c3.41,3.524,7.559,6.479,12.448,8.412
	c181.306,72.069,303.103,250.989,303.103,445.208c0,19.438,15.743,35.182,35.182,35.182c19.439,0,35.182-15.743,35.182-35.182
	c0-111.854-33.761-219.682-97.645-311.748L1051.51,835.016z M313.092,375.318c0-158.232,128.732-286.976,286.976-286.976
	s286.976,128.732,286.976,286.976c0,158.232-128.732,286.976-286.976,286.976S313.092,533.562,313.092,375.318z"/>
</svg>